<svg xmlns="http://www.w3.org/2000/svg" width="131.515" height="58.062" viewBox="0 0 131.515 58.062"><defs><style>.a{fill:#e1136d;}.b{fill:#0f0f0f;}</style></defs><g transform="translate(-58.682 349.635)"><g transform="translate(58.682 -328.524)"><path class="a" d="M59.786-268.85a8.4,8.4,0,0,0-.218-1.961,2.423,2.423,0,0,0-.886-1.42l3.574-.541v10.546a.149.149,0,0,0,.169.169c.067,0,.225-.141.47-.425a8.69,8.69,0,0,1,.956-.916,7.588,7.588,0,0,1,1.411-.919,4,4,0,0,1,1.864-.425,4.344,4.344,0,0,1,2.551.727,5.393,5.393,0,0,1,1.663,1.861,8.987,8.987,0,0,1,.906,2.5,13.085,13.085,0,0,1,.286,2.688,12.074,12.074,0,0,1-.417,3.215,8,8,0,0,1-1.274,2.674,6.108,6.108,0,0,1-2.193,1.825,6.953,6.953,0,0,1-3.18.677,11.823,11.823,0,0,1-1.474-.084c-.447-.056-.888-.119-1.323-.186s-.893-.13-1.372-.186a14.126,14.126,0,0,0-1.625-.084q.055-2.13.084-4.243t.028-4.241Zm9.834,10.3a8.028,8.028,0,0,0-.67-2.048,4.163,4.163,0,0,0-1.209-1.488,2.879,2.879,0,0,0-1.793-.575,3.11,3.11,0,0,0-2.734,1.4,6.748,6.748,0,0,0-.957,3.841v2.606a17.693,17.693,0,0,0,.1,1.93,4.489,4.489,0,0,0,.453,1.59,2.72,2.72,0,0,0,1.023,1.081,3.551,3.551,0,0,0,1.846.407,3.357,3.357,0,0,0,2.1-.625,4.227,4.227,0,0,0,1.276-1.591,7.52,7.52,0,0,0,.621-2.115,15.458,15.458,0,0,0,.166-2.2A11.711,11.711,0,0,0,69.619-258.552Z" transform="translate(-58.682 272.771)"/><path class="b" d="M122.149-260.586q0-1.145-.084-2.343a4.3,4.3,0,0,0-.651-2.073h4.5a4.288,4.288,0,0,0-.653,2.07q-.084,1.195-.084,2.339v5.249a3.023,3.023,0,0,0,1.254-.572,11.726,11.726,0,0,0,1.339-1.144q.687-.673,1.357-1.463t1.305-1.532q1.372-1.615,2.174-2.658a3.114,3.114,0,0,0,.8-1.649v-.37a.923.923,0,0,0-.033-.269h4.15q-1.171,1.044-2.193,1.918A24.3,24.3,0,0,0,133.214-261l-5.189,5.654,5.556,8q.669.979,1.472,1.974t1.574,1.874h-3.515a1.025,1.025,0,0,1-.735-.253,3.663,3.663,0,0,1-.535-.659l-6.024-9.178a3.177,3.177,0,0,0-.253-.355c-.1-.122-.182-.186-.249-.186a.108.108,0,0,0-.118.1,1.114,1.114,0,0,0-.017.2v5.9q0,1.148.084,2.348a4.309,4.309,0,0,0,.653,2.074h-4.5a4.29,4.29,0,0,0,.651-2.074q.084-1.195.084-2.341Z" transform="translate(-104.183 267.136)"/><path class="b" d="M190.469-227.7a10.613,10.613,0,0,1-.282-1.52c-.034-.382-.116-.572-.247-.572a.194.194,0,0,0-.135.033c-.023.023-.046.044-.067.067q-.337.473-.656.895a3.675,3.675,0,0,1-.758.742,3.426,3.426,0,0,1-1.042.505,5.149,5.149,0,0,1-1.481.186,4.665,4.665,0,0,1-2.96-.946,3.336,3.336,0,0,1-1.211-2.8,3,3,0,0,1,.619-1.909,6.408,6.408,0,0,1,1.544-1.4,12.823,12.823,0,0,1,1.979-1.064q1.058-.456,1.9-.862.705-.339,1.174-.576a2.416,2.416,0,0,0,.739-.544,1.68,1.68,0,0,0,.369-.781,6.548,6.548,0,0,0,.1-1.29,3.775,3.775,0,0,0-.569-2.12,2.256,2.256,0,0,0-2.043-.867,2.227,2.227,0,0,0-1.672.505,3.7,3.7,0,0,0-.72,1.114,8.757,8.757,0,0,1-.553,1.114,1.177,1.177,0,0,1-1.1.505,1.335,1.335,0,0,1-.905-.288,1.109,1.109,0,0,1-.333-.893,1.988,1.988,0,0,1,.568-1.434,4.31,4.31,0,0,1,1.439-.962,7.75,7.75,0,0,1,1.925-.522,14.261,14.261,0,0,1,2.025-.152,11.708,11.708,0,0,1,1.706.118,4.579,4.579,0,0,1,1.4.423,2.411,2.411,0,0,1,.951.845,2.45,2.45,0,0,1,.351,1.355v7.44q0,1.521.083,2.958a4.545,4.545,0,0,0,.854,2.487Zm-5.31-2.162a2.855,2.855,0,0,0,1.866.59,2.627,2.627,0,0,0,1.311-.319,3,3,0,0,0,.958-.84,3.561,3.561,0,0,0,.572-1.195,5.223,5.223,0,0,0,.186-1.38v-3.4l-1.816.909c-.628.312-1.178.6-1.648.856a7.057,7.057,0,0,0-1.193.807,2.731,2.731,0,0,0-.723.944,2.942,2.942,0,0,0-.235,1.227A2.179,2.179,0,0,0,185.159-229.862Z" transform="translate(-147.86 251.565)"/><path class="b" d="M234.625-238.767a5.577,5.577,0,0,0,1.288,1.2,15.051,15.051,0,0,0,1.674.981,10.631,10.631,0,0,1,1.674,1.048,5.781,5.781,0,0,1,1.288,1.372,3.467,3.467,0,0,1,.519,1.962,4.159,4.159,0,0,1-.519,2.116,4.8,4.8,0,0,1-1.376,1.506,6.245,6.245,0,0,1-1.911.912,7.635,7.635,0,0,1-2.129.305,9.309,9.309,0,0,1-1.9-.186,11.285,11.285,0,0,1-1.828-.558,1.3,1.3,0,0,1-.417-.237.669.669,0,0,1-.151-.507,11.281,11.281,0,0,1,.067-1.218c.044-.407.079-.825.1-1.253q.4.64.77,1.144a4.007,4.007,0,0,0,.839.856,3.493,3.493,0,0,0,1.058.537,4.752,4.752,0,0,0,1.427.186,3.46,3.46,0,0,0,2.334-.709,2.7,2.7,0,0,0,.823-2.164,2.9,2.9,0,0,0-.484-1.706,5.057,5.057,0,0,0-1.221-1.216,13.686,13.686,0,0,0-1.607-.981,9.721,9.721,0,0,1-1.606-1.048,5.092,5.092,0,0,1-1.221-1.419,4.049,4.049,0,0,1-.486-2.08,3.011,3.011,0,0,1,1.355-2.77,7.031,7.031,0,0,1,3.73-.845,9.813,9.813,0,0,1,1.523.118q.753.118,1.521.288a1.478,1.478,0,0,0,.251.084.217.217,0,0,1,.184.22c0,.316-.007.69-.017,1.118s-.028.822-.049,1.183q-.5-.611-.888-1a3.461,3.461,0,0,0-.786-.611,2.9,2.9,0,0,0-.837-.3,5.361,5.361,0,0,0-1.006-.085,3.168,3.168,0,0,0-1.741.491,1.725,1.725,0,0,0-.77,1.572A2.7,2.7,0,0,0,234.625-238.767Z" transform="translate(-183.556 251.565)"/><path class="b" d="M289.373-252.78q0,.948.067,1.944a4,4,0,0,0,.469,1.706H286.9v-9.276a15.755,15.755,0,0,0-.084-1.625,4.2,4.2,0,0,0-.405-1.457,2.74,2.74,0,0,0-.911-1.049,2.8,2.8,0,0,0-1.6-.407,2.876,2.876,0,0,0-1.62.407,2.87,2.87,0,0,0-.962,1.083,4.638,4.638,0,0,0-.474,1.525,12.137,12.137,0,0,0-.118,1.692v5.45q0,.948.068,1.948a3.4,3.4,0,0,0,.551,1.709h-3.692a3.464,3.464,0,0,0,.535-1.706q.066-.995.067-1.941v-16.076a18,18,0,0,0-.1-1.958,1.967,1.967,0,0,0-.77-1.419l3.341-.541v9.549c0,.134.005.258.014.37s.042.168.1.168.2-.107.388-.321a5.183,5.183,0,0,1,.826-.708,6.371,6.371,0,0,1,1.333-.709,4.991,4.991,0,0,1,1.873-.32,4.274,4.274,0,0,1,3.018,1.014,4.428,4.428,0,0,1,1.1,3.378Z" transform="translate(-217.315 272.771)"/></g><g transform="translate(127.194 -349.635)"><path class="a" d="M309.349-349.635l28.413,3.706-6.738,23.584Z" transform="translate(-309.012 349.635)"/><path class="a" d="M399.217-335.733l21.113,28.077-24.37,11.68-3.032-12.354a18.465,18.465,0,0,1,.449-7.974Z" transform="translate(-369.456 339.551)"/><path class="a" d="M475.448-269.326l-7.861-11.006,13.252-2.246Z" transform="translate(-423.788 300.996)"/><path class="a" d="M513.584-282.578l4.942,5.278h-7.188Z" transform="translate(-455.522 300.996)"/><path class="a" d="M420.156-220.245l20.1-10-.674,2.358Z" transform="translate(-389.384 263.033)"/><path class="a" d="M366.02-241.28l-8.423,28.3,12.8-10.108Z" transform="translate(-344.008 271.041)"/><path class="a" d="M319.464-322.017l-8.2-10.444-3.145.112Z" transform="translate(-308.121 337.178)"/><path class="a" d="M392.927-241.648c.072.947.179,1.561.179,1.561l3.032,12.353,24.37-11.68-.223-.3Z" transform="translate(-369.634 271.308)"/></g></g></svg>