<svg xmlns="http://www.w3.org/2000/svg" width="15.09" height="15.089" viewBox="0 0 15.09 15.089"><defs><style>.a{fill:#fff;}</style></defs><g transform="translate(0 -0.004)"><g transform="translate(0 1.082)"><path class="a" d="M12.395,40.6a.539.539,0,0,0-.539.539v5.389a.539.539,0,0,1-.539.539h-9.7a.539.539,0,0,1-.539-.539V35.754a.539.539,0,0,1,.539-.539H8.084a.539.539,0,1,0,0-1.078H1.617A1.617,1.617,0,0,0,0,35.754V46.532a1.617,1.617,0,0,0,1.617,1.617h9.7a1.617,1.617,0,0,0,1.617-1.617V41.143A.539.539,0,0,0,12.395,40.6Z" transform="translate(0 -34.137)"/></g><g transform="translate(3.234 0.004)"><path class="a" d="M113.66.608a2.063,2.063,0,0,0-2.918,0l-7.1,7.1a.545.545,0,0,0-.13.211l-1.078,3.233a.539.539,0,0,0,.511.709.547.547,0,0,0,.17-.027l3.233-1.078a.539.539,0,0,0,.211-.13l7.1-7.1A2.063,2.063,0,0,0,113.66.608Z" transform="translate(-102.409 -0.004)"/></g></g></svg>