<svg xmlns="http://www.w3.org/2000/svg" xmlns:xlink="http://www.w3.org/1999/xlink" width="158.054" height="151.468" viewBox="0 0 158.054 151.468"><defs><style>.a{fill:none;}.b{clip-path:url(#a);}.c{fill:#e2136e;}</style><clipPath id="a"><rect class="a" width="158.054" height="151.468"/></clipPath></defs><g class="b"><path class="c" d="M192.5,236.947l8.733,39.66,55.828-28.98Z" transform="translate(-133.881 -161.871)"/><path class="c" d="M208.549,28.833l-16.6,62.4,67.329,10.985Z" transform="translate(-133.504 -19.697)"/><path class="c" d="M7.012,0l69.63,8.658L60.192,70.7Z" transform="translate(-4.877)"/><path class="c" d="M0,39.245H7.753L29.527,68.2Z" transform="translate(0 -26.81)"/><path class="c" d="M377.834,183.167l-20.262-29.141,32.762-6.1Z" transform="translate(-248.692 -101.054)"/><path class="c" d="M296.048,281.923l2.071-6.484-51.09,26.969Z" transform="translate(-171.81 -188.167)"/><path class="c" d="M133.795,236.1l10.667,49.9L112.8,312.763Z" transform="translate(-78.453 -161.295)"/><path class="c" d="M458.033,163.267l18.584-.315-13.425-14.247Z" transform="translate(-318.563 -101.588)"/></g></svg>